<svg width="180" height="47" viewBox="0 0 180 47" fill="none" xmlns="http://www.w3.org/2000/svg">
<path d="M65.485 21.618C66.6257 21.8307 67.5633 22.401 68.298 23.329C69.0327 24.257 69.4 25.3203 69.4 26.519C69.4 27.6017 69.1293 28.5587 68.588 29.39C68.066 30.202 67.3023 30.84 66.297 31.304C65.2917 31.768 64.1027 32 62.73 32H54.001V11.758H62.353C63.7257 11.758 64.905 11.9803 65.891 12.425C66.8963 12.8697 67.6503 13.4883 68.153 14.281C68.675 15.0737 68.936 15.9727 68.936 16.978C68.936 18.1573 68.617 19.1433 67.979 19.936C67.3603 20.7287 66.529 21.2893 65.485 21.618ZM58.061 20.11H61.773C62.7397 20.11 63.484 19.8973 64.006 19.472C64.528 19.0273 64.789 18.399 64.789 17.587C64.789 16.775 64.528 16.1467 64.006 15.702C63.484 15.2573 62.7397 15.035 61.773 15.035H58.061V20.11ZM62.15 28.694C63.136 28.694 63.8997 28.462 64.441 27.998C65.0017 27.534 65.282 26.8767 65.282 26.026C65.282 25.156 64.992 24.4793 64.412 23.996C63.832 23.4933 63.049 23.242 62.063 23.242H58.061V28.694H62.15ZM71.5918 23.909C71.5918 22.285 71.9108 20.8447 72.5488 19.588C73.2061 18.3313 74.0858 17.3647 75.1878 16.688C76.3091 16.0113 77.5561 15.673 78.9288 15.673C80.1274 15.673 81.1714 15.9147 82.0608 16.398C82.9694 16.8813 83.6944 17.4903 84.2358 18.225V15.934H88.3248V32H84.2358V29.651C83.7138 30.405 82.9888 31.0333 82.0608 31.536C81.1521 32.0193 80.0984 32.261 78.8998 32.261C77.5464 32.261 76.3091 31.913 75.1878 31.217C74.0858 30.521 73.2061 29.5447 72.5488 28.288C71.9108 27.012 71.5918 25.5523 71.5918 23.909ZM84.2358 23.967C84.2358 22.981 84.0424 22.14 83.6558 21.444C83.2691 20.7287 82.7471 20.1873 82.0898 19.82C81.4324 19.4333 80.7268 19.24 79.9728 19.24C79.2188 19.24 78.5228 19.4237 77.8848 19.791C77.2468 20.1583 76.7248 20.6997 76.3188 21.415C75.9321 22.111 75.7388 22.9423 75.7388 23.909C75.7388 24.8757 75.9321 25.7263 76.3188 26.461C76.7248 27.1763 77.2468 27.7273 77.8848 28.114C78.5421 28.5007 79.2381 28.694 79.9728 28.694C80.7268 28.694 81.4324 28.5103 82.0898 28.143C82.7471 27.7563 83.2691 27.215 83.6558 26.519C84.0424 25.8037 84.2358 24.953 84.2358 23.967ZM96.3501 10.54V32H92.2901V10.54H96.3501ZM99.3174 23.909C99.3174 22.285 99.6364 20.8447 100.274 19.588C100.932 18.3313 101.811 17.3647 102.913 16.688C104.035 16.0113 105.282 15.673 106.654 15.673C107.853 15.673 108.897 15.9147 109.786 16.398C110.695 16.8813 111.42 17.4903 111.961 18.225V15.934H116.05V32H111.961V29.651C111.439 30.405 110.714 31.0333 109.786 31.536C108.878 32.0193 107.824 32.261 106.625 32.261C105.272 32.261 104.035 31.913 102.913 31.217C101.811 30.521 100.932 29.5447 100.274 28.288C99.6364 27.012 99.3174 25.5523 99.3174 23.909ZM111.961 23.967C111.961 22.981 111.768 22.14 111.381 21.444C110.995 20.7287 110.473 20.1873 109.815 19.82C109.158 19.4333 108.452 19.24 107.698 19.24C106.944 19.24 106.248 19.4237 105.61 19.791C104.972 20.1583 104.45 20.6997 104.044 21.415C103.658 22.111 103.464 22.9423 103.464 23.909C103.464 24.8757 103.658 25.7263 104.044 26.461C104.45 27.1763 104.972 27.7273 105.61 28.114C106.268 28.5007 106.964 28.694 107.698 28.694C108.452 28.694 109.158 28.5103 109.815 28.143C110.473 27.7563 110.995 27.215 111.381 26.519C111.768 25.8037 111.961 24.953 111.961 23.967ZM128.919 15.702C130.833 15.702 132.379 16.311 133.559 17.529C134.738 18.7277 135.328 20.4097 135.328 22.575V32H131.268V23.126C131.268 21.85 130.949 20.8737 130.311 20.197C129.673 19.501 128.803 19.153 127.701 19.153C126.579 19.153 125.69 19.501 125.033 20.197C124.395 20.8737 124.076 21.85 124.076 23.126V32H120.016V15.934H124.076V17.935C124.617 17.239 125.303 16.6977 126.135 16.311C126.985 15.905 127.913 15.702 128.919 15.702ZM138.144 23.967C138.144 22.3043 138.483 20.8543 139.16 19.617C139.836 18.3603 140.774 17.3937 141.973 16.717C143.171 16.021 144.544 15.673 146.091 15.673C148.082 15.673 149.725 16.1757 151.021 17.181C152.335 18.167 153.215 19.559 153.66 21.357H149.281C149.049 20.661 148.652 20.1197 148.092 19.733C147.55 19.327 146.874 19.124 146.062 19.124C144.902 19.124 143.983 19.5493 143.307 20.4C142.63 21.2313 142.292 22.4203 142.292 23.967C142.292 25.4943 142.63 26.6833 143.307 27.534C143.983 28.3653 144.902 28.781 146.062 28.781C147.705 28.781 148.778 28.0463 149.281 26.577H153.66C153.215 28.317 152.335 29.6993 151.021 30.724C149.706 31.7487 148.063 32.261 146.091 32.261C144.544 32.261 143.171 31.9227 141.973 31.246C140.774 30.55 139.836 29.5833 139.16 28.346C138.483 27.0893 138.144 25.6297 138.144 23.967ZM171.569 23.619C171.569 24.199 171.53 24.721 171.453 25.185H159.708C159.804 26.345 160.21 27.2537 160.926 27.911C161.641 28.5683 162.521 28.897 163.565 28.897C165.073 28.897 166.146 28.2493 166.784 26.954H171.163C170.699 28.5007 169.809 29.7767 168.495 30.782C167.18 31.768 165.566 32.261 163.652 32.261C162.105 32.261 160.713 31.9227 159.476 31.246C158.258 30.55 157.301 29.5737 156.605 28.317C155.928 27.0603 155.59 25.6103 155.59 23.967C155.59 22.3043 155.928 20.8447 156.605 19.588C157.281 18.3313 158.229 17.3647 159.447 16.688C160.665 16.0113 162.066 15.673 163.652 15.673C165.179 15.673 166.542 16.0017 167.741 16.659C168.959 17.3163 169.896 18.254 170.554 19.472C171.23 20.6707 171.569 22.053 171.569 23.619ZM167.364 22.459C167.344 21.415 166.967 20.5837 166.233 19.965C165.498 19.327 164.599 19.008 163.536 19.008C162.53 19.008 161.68 19.3173 160.984 19.936C160.307 20.5353 159.891 21.3763 159.737 22.459H167.364Z" fill="white"/>
<path d="M34.1422 8.85781C30.3647 5.08031 25.3422 3 20 3C14.6578 3 9.63531 5.08031 5.85781 8.85781C2.08031 12.6353 0 17.6578 0 23C0 28.3422 2.08039 33.3646 5.85781 37.1422C9.63523 40.9198 14.6578 43 20 43C25.3422 43 30.3647 40.9197 34.1422 37.1422C37.9197 33.3647 40 28.3422 40 23C40 17.6578 37.9196 12.6354 34.1422 8.85781Z" fill="#33CC95"/>
<g clip-path="url(#clip0)">
<path d="M20.5714 11V36.1429" stroke="white" stroke-width="2" stroke-linecap="round" stroke-linejoin="round"/>
<path d="M26.2857 15.5714H17.7143C16.6534 15.5714 15.636 15.9929 14.8859 16.743C14.1357 17.4931 13.7143 18.5106 13.7143 19.5714C13.7143 20.6323 14.1357 21.6497 14.8859 22.3999C15.636 23.15 16.6534 23.5714 17.7143 23.5714H23.4286C24.4894 23.5714 25.5069 23.9929 26.257 24.743C27.0072 25.4932 27.4286 26.5106 27.4286 27.5714C27.4286 28.6323 27.0072 29.6497 26.257 30.3999C25.5069 31.15 24.4894 31.5714 23.4286 31.5714H13.7143" stroke="white" stroke-width="2" stroke-linecap="round" stroke-linejoin="round"/>
</g>
<defs>
<clipPath id="clip0">
<rect width="27.4286" height="27.4286" fill="white" transform="translate(6.85715 9.85714)"/>
</clipPath>
</defs>
</svg>
